<?xml version="1.0" encoding="UTF-8" standalone="no"?>
<svg
   xmlns:dc="http://purl.org/dc/elements/1.1/"
   xmlns:cc="http://creativecommons.org/ns#"
   xmlns:rdf="http://www.w3.org/1999/02/22-rdf-syntax-ns#"
   xmlns:svg="http://www.w3.org/2000/svg"
   xmlns="http://www.w3.org/2000/svg"
   xmlns:sodipodi="http://sodipodi.sourceforge.net/DTD/sodipodi-0.dtd"
   xmlns:inkscape="http://www.inkscape.org/namespaces/inkscape"
   width="512"
   height="512"
   viewBox="0 0 135.46666 135.46667"
   version="1.1"
   id="svg864"
   inkscape:version="1.0.2 (e86c8708, 2021-01-15)"
   sodipodi:docname="logo.svg"
   inkscape:export-filename="/Users/erivcross/nitrive.png"
   inkscape:export-xdpi="96"
   inkscape:export-ydpi="96">
  <defs
     id="defs858" />
  <sodipodi:namedview
     id="base"
     pagecolor="#ffffff"
     bordercolor="#666666"
     borderopacity="1.0"
     inkscape:pageopacity="0.0"
     inkscape:pageshadow="2"
     inkscape:zoom="0.76"
     inkscape:cx="294.27354"
     inkscape:cy="161.46923"
     inkscape:document-units="px"
     inkscape:current-layer="layer1"
     inkscape:document-rotation="0"
     showgrid="false"
     units="px"
     inkscape:pagecheckerboard="true"
     inkscape:showpageshadow="false"
     inkscape:window-width="1680"
     inkscape:window-height="940"
     inkscape:window-x="0"
     inkscape:window-y="23"
     inkscape:window-maximized="0" />
  <metadata
     id="metadata861">
    <rdf:RDF>
      <cc:Work
         rdf:about="">
        <dc:format>image/svg+xml</dc:format>
        <dc:type
           rdf:resource="http://purl.org/dc/dcmitype/StillImage" />
        <dc:title />
      </cc:Work>
    </rdf:RDF>
  </metadata>
  <g
     inkscape:label="Layer 1"
     inkscape:groupmode="layer"
     id="layer1">
    <rect
       style="display:none;fill:#422936;fill-opacity:1;stroke-width:17.5618;stroke-linecap:round;stroke-linejoin:round"
       id="rect853"
       width="135.46666"
       height="135.46666"
       x="0"
       y="0"
       inkscape:label="BG" />
    <path
       id="path872"
       style="fill:#422936;fill-opacity:1;stroke:none;stroke-width:0.640905"
       inkscape:label="Nitrive"
       d="m 8.4353339,79.414873 c 0.58791,7.210632 4.6303201,23.958207 12.9751301,26.399737 5.27703,1.54433 8.97603,-6.449536 14.80013,-1.45631 5.657634,4.85079 2.029815,8.84361 3.813831,14.25476 1.639134,4.97169 12.455082,7.45696 17.065674,8.10026 2.831058,0.39451 9.55386,1.2511 11.936637,-0.55653 2.433375,-1.8457 2.075949,-7.39802 4.053915,-9.98966 5.527188,-7.24041 13.749834,0.45278 17.094693,5.67075 9.197691,-2.07679 23.683176,-8.61311 25.415916,-18.99531 0.65131,-3.901027 -2.43792,-9.283672 -4.16872,-12.663577 C 105.64042,78.891295 94.393392,65.901637 79.795662,69.28405 c 5.488911,6.645237 12.747537,11.949375 11.557782,21.528135 -2.472966,19.903305 -29.327142,22.831135 -41.186136,9.472325 -4.84965,-5.463104 -4.10562,-12.239417 -4.10562,-18.970094 0,-14.698608 -4.17393,-34.715988 7.196355,-46.196653 11.385873,-11.49581 31.069641,-3.37751 32.904903,12.005008 0.977031,8.188887 -7.422111,11.856246 -7.664745,18.995361 15.121902,0 25.766899,5.713779 33.733949,18.362181 l 12.9746,-1.899513 c 2.46518,-10.494333 2.75776,-19.144839 0.6488,-29.759442 -6.44774,0.49644 -18.28641,-0.455232 -15.69667,-10.130871 0.88675,-3.312402 4.99455,-6.237507 5.15349,-9.497674 0.15377,-3.13297 -4.32702,-7.30485 -6.43476,-9.3169 -3.17166,-3.02855 -12.262988,-11.54146 -17.346425,-9.5436 -4.786965,1.88108 -7.217766,9.46425 -13.681704,7.67338 -7.269678,-2.01409 -4.461984,-7.79064 -7.717968,-11.96594 -2.630583,-3.37275 -11.449431,-1.21003 -14.987601,-0.48662 -4.232709,0.8655 -14.24637,2.84746 -16.062111,7.29427 -2.002878,4.9053 4.533462,8.1056 -1.482138,12.92982 -5.848899,4.69061 -9.273019,-0.76694 -14.892259,-0.22436 -5.37149,0.51878 -10.34406,10.144761 -12.17518,14.403867 -1.3753101,3.198822 -3.3525601,9.074751 -1.7054401,12.472368 1.2840901,2.647962 6.3792801,3.461628 8.4349801,5.917083 5.99354,7.159344 -1.43317,15.353958 -8.8264301,17.068578 M 64.226136,45.223081 h -6.487299 v 5.06544 h 6.487299 v 6.331752 h 5.189841 v -6.331752 h 6.48729 v -5.06544 h -6.48729 L 64.12431,38.89129 c 0,0 0.105066,1.950015 0.101826,6.331791 M 58.48356,80.70136 c -4.511907,2.512455 -0.15828,9.073422 4.163562,6.197559 3.698415,-2.460528 -0.20307,-8.40228 -4.163562,-6.197559 m 12.300597,8.871441 c -4.719528,2.436489 -0.725967,9.226686 3.725649,6.814902 4.260198,-2.309169 0.696699,-9.097482 -3.725649,-6.814902 z M 8.4353339,79.414873 c 0.58791,7.210632 4.6303201,23.958207 12.9751301,26.399737 5.27703,1.54433 8.97603,-6.449536 14.80013,-1.45631 5.657634,4.85079 2.029815,8.84361 3.813831,14.25476 1.639134,4.97169 12.455082,7.45696 17.065674,8.10026 2.831058,0.39451 9.55386,1.2511 11.936637,-0.55653 2.433375,-1.8457 2.075949,-7.39802 4.053915,-9.98966 5.527188,-7.24041 13.749834,0.45278 17.094693,5.67075 9.197691,-2.07679 23.683176,-8.61311 25.415916,-18.99531 0.65131,-3.901027 -2.43792,-9.283672 -4.16872,-12.663577 C 105.64042,78.891295 94.393392,65.901637 79.795662,69.28405 c 5.488911,6.645237 12.747537,11.949375 11.557782,21.528135 -2.472966,19.903305 -29.327142,22.831135 -41.186136,9.472325 -4.84965,-5.463104 -4.10562,-12.239417 -4.10562,-18.970094 0,-14.698608 -4.17393,-34.715988 7.196355,-46.196653 11.385873,-11.49581 31.069641,-3.37751 32.904903,12.005008 0.977031,8.188887 -7.422111,11.856246 -7.664745,18.995361 15.121902,0 25.766899,5.713779 33.733949,18.362181 l 12.9746,-1.899513 c 2.46518,-10.494333 2.75776,-19.144839 0.6488,-29.759442 -6.44774,0.49644 -18.28641,-0.455232 -15.69667,-10.130871 0.88675,-3.312402 4.99455,-6.237507 5.15349,-9.497674 0.15377,-3.13297 -4.32702,-7.30485 -6.43476,-9.3169 -3.17166,-3.02855 -12.262988,-11.54146 -17.346425,-9.5436 -4.786965,1.88108 -7.217766,9.46425 -13.681704,7.67338 -7.269678,-2.01409 -4.461984,-7.79064 -7.717968,-11.96594 -2.630583,-3.37275 -11.449431,-1.21003 -14.987601,-0.48662 -4.232709,0.8655 -14.24637,2.84746 -16.062111,7.29427 -2.002878,4.9053 4.533462,8.1056 -1.482138,12.92982 -5.848899,4.69061 -9.273019,-0.76694 -14.892259,-0.22436 -5.37149,0.51878 -10.34406,10.144761 -12.17518,14.403867 -1.3753101,3.198822 -3.3525601,9.074751 -1.7054401,12.472368 1.2840901,2.647962 6.3792801,3.461628 8.4349801,5.917083 5.99354,7.159344 -1.43317,15.353958 -8.8264301,17.068578 M 64.226136,45.223081 h -6.487299 v 5.06544 h 6.487299 v 6.331752 h 5.189841 v -6.331752 h 6.48729 v -5.06544 h -6.48729 V 38.89129 c -4.880394,0.05685 -5.291667,0 -5.291667,0 m -5.64075,41.81007 c -4.511907,2.512455 -0.15828,9.073422 4.163562,6.197559 3.698415,-2.460528 -0.20307,-8.40228 -4.163562,-6.197559 m 12.300597,8.871441 c -4.719528,2.436489 -0.725967,9.226686 3.725649,6.814902 4.260198,-2.309169 0.696699,-9.097482 -3.725649,-6.814902 z" />
  </g>
</svg>
