<?xml version="1.0" encoding="UTF-8" standalone="no"?>
<svg
   xmlns:dc="http://purl.org/dc/elements/1.1/"
   xmlns:cc="http://creativecommons.org/ns#"
   xmlns:rdf="http://www.w3.org/1999/02/22-rdf-syntax-ns#"
   xmlns:svg="http://www.w3.org/2000/svg"
   xmlns="http://www.w3.org/2000/svg"
   xmlns:sodipodi="http://sodipodi.sourceforge.net/DTD/sodipodi-0.dtd"
   xmlns:inkscape="http://www.inkscape.org/namespaces/inkscape"
   width="1600"
   height="512"
   viewBox="0 0 423.33331 135.46667"
   version="1.1"
   id="svg864"
   inkscape:version="1.0.2 (e86c8708, 2021-01-15)"
   sodipodi:docname="logo.svg"
   inkscape:export-filename="/Users/erivcross/nitrive.png"
   inkscape:export-xdpi="96"
   inkscape:export-ydpi="96">
  <defs
     id="defs858" />
  <sodipodi:namedview
     id="base"
     pagecolor="#ffffff"
     bordercolor="#666666"
     borderopacity="1.0"
     inkscape:pageopacity="0.0"
     inkscape:pageshadow="2"
     inkscape:zoom="0.58"
     inkscape:cx="822.65282"
     inkscape:cy="181.73424"
     inkscape:document-units="px"
     inkscape:current-layer="layer1"
     inkscape:document-rotation="0"
     showgrid="false"
     units="px"
     inkscape:pagecheckerboard="true"
     inkscape:showpageshadow="false"
     inkscape:window-width="1680"
     inkscape:window-height="940"
     inkscape:window-x="0"
     inkscape:window-y="23"
     inkscape:window-maximized="0" />
  <metadata
     id="metadata861">
    <rdf:RDF>
      <cc:Work
         rdf:about="">
        <dc:format>image/svg+xml</dc:format>
        <dc:type
           rdf:resource="http://purl.org/dc/dcmitype/StillImage" />
        <dc:title />
      </cc:Work>
    </rdf:RDF>
  </metadata>
  <g
     inkscape:label="Layer 1"
     inkscape:groupmode="layer"
     id="layer1">
    <rect
       style="display:none;fill:#422936;fill-opacity:1;stroke-width:17.5618;stroke-linecap:round;stroke-linejoin:round"
       id="rect853"
       width="135.46666"
       height="135.46666"
       x="0"
       y="0"
       inkscape:label="BG" />
    <g
       id="g1337"
       transform="translate(1.3156433)">
      <path
         id="path872"
         style="fill:#dca456;fill-opacity:1;stroke:none;stroke-width:0.640905"
         inkscape:label="Nitrive"
         d="m 8.4353339,79.414873 c 0.58791,7.210632 4.6303201,23.958207 12.9751301,26.399737 5.27703,1.54433 8.97603,-6.449536 14.80013,-1.45631 5.657634,4.85079 2.029815,8.84361 3.813831,14.25476 1.639134,4.97169 12.455082,7.45696 17.065674,8.10026 2.831058,0.39451 9.55386,1.2511 11.936637,-0.55653 2.433375,-1.8457 2.075949,-7.39802 4.053915,-9.98966 5.527188,-7.24041 13.749834,0.45278 17.094693,5.67075 9.197691,-2.07679 23.683176,-8.61311 25.415916,-18.99531 0.65131,-3.901027 -2.43792,-9.283672 -4.16872,-12.663577 C 105.64042,78.891295 94.393392,65.901637 79.795662,69.28405 c 5.488911,6.645237 12.747537,11.949375 11.557782,21.528135 -2.472966,19.903305 -29.327142,22.831135 -41.186136,9.472325 -4.84965,-5.463104 -4.10562,-12.239417 -4.10562,-18.970094 0,-14.698608 -4.17393,-34.715988 7.196355,-46.196653 11.385873,-11.49581 31.069641,-3.37751 32.904903,12.005008 0.977031,8.188887 -7.422111,11.856246 -7.664745,18.995361 15.121902,0 25.766899,5.713779 33.733949,18.362181 l 12.9746,-1.899513 c 2.46518,-10.494333 2.75776,-19.144839 0.6488,-29.759442 -6.44774,0.49644 -18.28641,-0.455232 -15.69667,-10.130871 0.88675,-3.312402 4.99455,-6.237507 5.15349,-9.497674 0.15377,-3.13297 -4.32702,-7.30485 -6.43476,-9.3169 -3.17166,-3.02855 -12.262988,-11.54146 -17.346425,-9.5436 -4.786965,1.88108 -7.217766,9.46425 -13.681704,7.67338 -7.269678,-2.01409 -4.461984,-7.79064 -7.717968,-11.96594 -2.630583,-3.37275 -11.449431,-1.21003 -14.987601,-0.48662 -4.232709,0.8655 -14.24637,2.84746 -16.062111,7.29427 -2.002878,4.9053 4.533462,8.1056 -1.482138,12.92982 -5.848899,4.69061 -9.273019,-0.76694 -14.892259,-0.22436 -5.37149,0.51878 -10.34406,10.144761 -12.17518,14.403867 -1.3753101,3.198822 -3.3525601,9.074751 -1.7054401,12.472368 1.2840901,2.647962 6.3792801,3.461628 8.4349801,5.917083 5.99354,7.159344 -1.43317,15.353958 -8.8264301,17.068578 M 64.226136,45.223081 h -6.487299 v 5.06544 h 6.487299 v 6.331752 h 5.189841 v -6.331752 h 6.48729 v -5.06544 h -6.48729 L 64.12431,38.89129 c 0,0 0.105066,1.950015 0.101826,6.331791 M 58.48356,80.70136 c -4.511907,2.512455 -0.15828,9.073422 4.163562,6.197559 3.698415,-2.460528 -0.20307,-8.40228 -4.163562,-6.197559 m 12.300597,8.871441 c -4.719528,2.436489 -0.725967,9.226686 3.725649,6.814902 4.260198,-2.309169 0.696699,-9.097482 -3.725649,-6.814902 z M 8.4353339,79.414873 c 0.58791,7.210632 4.6303201,23.958207 12.9751301,26.399737 5.27703,1.54433 8.97603,-6.449536 14.80013,-1.45631 5.657634,4.85079 2.029815,8.84361 3.813831,14.25476 1.639134,4.97169 12.455082,7.45696 17.065674,8.10026 2.831058,0.39451 9.55386,1.2511 11.936637,-0.55653 2.433375,-1.8457 2.075949,-7.39802 4.053915,-9.98966 5.527188,-7.24041 13.749834,0.45278 17.094693,5.67075 9.197691,-2.07679 23.683176,-8.61311 25.415916,-18.99531 0.65131,-3.901027 -2.43792,-9.283672 -4.16872,-12.663577 C 105.64042,78.891295 94.393392,65.901637 79.795662,69.28405 c 5.488911,6.645237 12.747537,11.949375 11.557782,21.528135 -2.472966,19.903305 -29.327142,22.831135 -41.186136,9.472325 -4.84965,-5.463104 -4.10562,-12.239417 -4.10562,-18.970094 0,-14.698608 -4.17393,-34.715988 7.196355,-46.196653 11.385873,-11.49581 31.069641,-3.37751 32.904903,12.005008 0.977031,8.188887 -7.422111,11.856246 -7.664745,18.995361 15.121902,0 25.766899,5.713779 33.733949,18.362181 l 12.9746,-1.899513 c 2.46518,-10.494333 2.75776,-19.144839 0.6488,-29.759442 -6.44774,0.49644 -18.28641,-0.455232 -15.69667,-10.130871 0.88675,-3.312402 4.99455,-6.237507 5.15349,-9.497674 0.15377,-3.13297 -4.32702,-7.30485 -6.43476,-9.3169 -3.17166,-3.02855 -12.262988,-11.54146 -17.346425,-9.5436 -4.786965,1.88108 -7.217766,9.46425 -13.681704,7.67338 -7.269678,-2.01409 -4.461984,-7.79064 -7.717968,-11.96594 -2.630583,-3.37275 -11.449431,-1.21003 -14.987601,-0.48662 -4.232709,0.8655 -14.24637,2.84746 -16.062111,7.29427 -2.002878,4.9053 4.533462,8.1056 -1.482138,12.92982 -5.848899,4.69061 -9.273019,-0.76694 -14.892259,-0.22436 -5.37149,0.51878 -10.34406,10.144761 -12.17518,14.403867 -1.3753101,3.198822 -3.3525601,9.074751 -1.7054401,12.472368 1.2840901,2.647962 6.3792801,3.461628 8.4349801,5.917083 5.99354,7.159344 -1.43317,15.353958 -8.8264301,17.068578 M 64.226136,45.223081 h -6.487299 v 5.06544 h 6.487299 v 6.331752 h 5.189841 v -6.331752 h 6.48729 v -5.06544 h -6.48729 V 38.89129 c -4.880394,0.05685 -5.291667,0 -5.291667,0 m -5.64075,41.81007 c -4.511907,2.512455 -0.15828,9.073422 4.163562,6.197559 3.698415,-2.460528 -0.20307,-8.40228 -4.163562,-6.197559 m 12.300597,8.871441 c -4.719528,2.436489 -0.725967,9.226686 3.725649,6.814902 4.260198,-2.309169 0.696699,-9.097482 -3.725649,-6.814902 z" />
      <g
         aria-label="nitrive"
         id="text842"
         style="font-style:normal;font-weight:normal;font-size:105.833px;line-height:1.25;font-family:sans-serif;opacity:1;fill:#dca456;fill-opacity:1;stroke:none;stroke-width:0.265;stroke-miterlimit:4;stroke-dasharray:none;stroke-opacity:1">
        <path
           d="m 156.80578,40.37075 -0.36173,6.304505 q 2.27376,-3.772368 5.52936,-5.632713 3.30728,-1.912022 7.59641,-1.912022 5.37433,0 8.78497,2.532137 3.41063,2.532137 4.39248,6.407857 0.98185,3.824044 0.98185,12.815715 V 108.94516 H 162.85191 V 61.454668 q 0,-7.079649 -0.46509,-8.629937 -0.46509,-1.550288 -2.58381,-1.550288 -2.22208,0 -2.79052,1.808669 -0.56844,1.756994 -0.56844,9.508434 V 108.94516 H 135.56684 V 40.37075 Z"
           style="font-style:normal;font-variant:normal;font-weight:normal;font-stretch:condensed;font-size:105.833px;font-family:Impact;-inkscape-font-specification:'Impact Condensed';fill:#dca456;fill-opacity:1;stroke:none;stroke-width:0.265;stroke-miterlimit:4;stroke-dasharray:none;stroke-opacity:1"
           id="path1411" />
        <path
           d="M 212.46113,25.281279 V 36.184972 H 190.9638 V 25.281279 Z m 0,15.089471 v 68.57441 H 190.9638 V 40.37075 Z"
           style="font-style:normal;font-variant:normal;font-weight:normal;font-stretch:condensed;font-size:105.833px;font-family:Impact;-inkscape-font-specification:'Impact Condensed';fill:#dca456;fill-opacity:1;stroke:none;stroke-width:0.265;stroke-miterlimit:4;stroke-dasharray:none;stroke-opacity:1"
           id="path1413" />
        <path
           d="m 241.9166,31.22405 v 10.800341 h 5.63271 v 10.852016 h -5.63271 v 36.690152 q 0,6.769591 0.67179,7.544735 0.72347,0.775144 5.83942,0.775144 v 11.058722 h -8.42323 q -7.13133,0 -10.18023,-0.56844 -3.0489,-0.62011 -5.37433,-2.73884 -2.32543,-2.1704 -2.89387,-4.90925 -0.56844,-2.790516 -0.56844,-13.022417 V 52.876407 h -4.49584 V 42.024391 h 4.49584 V 31.22405 Z"
           style="font-style:normal;font-variant:normal;font-weight:normal;font-stretch:condensed;font-size:105.833px;font-family:Impact;-inkscape-font-specification:'Impact Condensed';fill:#dca456;fill-opacity:1;stroke:none;stroke-width:0.265;stroke-miterlimit:4;stroke-dasharray:none;stroke-opacity:1"
           id="path1415" />
        <path
           d="m 273.02572,40.37075 -0.82683,8.991671 q 4.54752,-9.663462 13.17745,-10.231901 v 24.132818 q -5.73606,0 -8.42323,1.550288 -2.68716,1.550288 -3.30728,4.340806 -0.62011,2.738843 -0.62011,12.712363 V 108.94516 H 252.1485 V 40.37075 Z"
           style="font-style:normal;font-variant:normal;font-weight:normal;font-stretch:condensed;font-size:105.833px;font-family:Impact;-inkscape-font-specification:'Impact Condensed';fill:#dca456;fill-opacity:1;stroke:none;stroke-width:0.265;stroke-miterlimit:4;stroke-dasharray:none;stroke-opacity:1"
           id="path1417" />
        <path
           d="M 311.47286,25.281279 V 36.184972 H 289.97553 V 25.281279 Z m 0,15.089471 v 68.57441 H 289.97553 V 40.37075 Z"
           style="font-style:normal;font-variant:normal;font-weight:normal;font-stretch:condensed;font-size:105.833px;font-family:Impact;-inkscape-font-specification:'Impact Condensed';fill:#dca456;fill-opacity:1;stroke:none;stroke-width:0.265;stroke-miterlimit:4;stroke-dasharray:none;stroke-opacity:1"
           id="path1419" />
        <path
           d="m 362.06393,40.37075 -9.76681,68.57441 H 325.06373 L 314.57344,40.37075 h 18.65514 l 5.83941,50.022629 q 0.6718,-5.477684 2.27376,-26.87166 0.93017,-11.937218 2.06705,-23.150969 z"
           style="font-style:normal;font-variant:normal;font-weight:normal;font-stretch:condensed;font-size:105.833px;font-family:Impact;-inkscape-font-specification:'Impact Condensed';fill:#dca456;fill-opacity:1;stroke:none;stroke-width:0.265;stroke-miterlimit:4;stroke-dasharray:none;stroke-opacity:1"
           id="path1421" />
        <path
           d="m 412.49996,75.872347 h -27.02669 v 14.83109 q 0,4.650864 0.67179,5.994447 0.6718,1.343583 2.58382,1.343583 2.37711,0 3.15225,-1.756993 0.82682,-1.80867 0.82682,-6.92462 v -9.043347 h 19.79201 v 5.064274 q 0,6.356181 -0.82682,9.766815 -0.77514,3.410634 -3.72069,7.286354 -2.94555,3.87572 -7.49306,5.83942 -4.49583,1.91202 -11.3171,1.91202 -6.61456,0 -11.67884,-1.91202 -5.06427,-1.91202 -7.90647,-5.2193 -2.79052,-3.358962 -3.87572,-7.338035 -1.0852,-4.030749 -1.0852,-11.678837 V 64.038482 q 0,-8.991671 2.42878,-14.159298 2.42879,-5.219303 7.95815,-7.958146 5.52936,-2.790518 12.71236,-2.790518 8.78497,0 14.46936,3.358957 5.73606,3.307281 8.00982,8.836642 2.32543,5.477685 2.32543,15.451205 z M 391.57107,64.710273 v -5.012598 q 0,-5.322656 -0.56844,-6.872944 -0.56844,-1.550288 -2.32543,-1.550288 -2.1704,0 -2.68716,1.343583 -0.51677,1.291907 -0.51677,7.079649 v 5.012598 z"
           style="font-style:normal;font-variant:normal;font-weight:normal;font-stretch:condensed;font-size:105.833px;font-family:Impact;-inkscape-font-specification:'Impact Condensed';fill:#dca456;fill-opacity:1;stroke:none;stroke-width:0.265;stroke-miterlimit:4;stroke-dasharray:none;stroke-opacity:1"
           id="path1423" />
      </g>
    </g>
  </g>
</svg>
